<svg version="1.0" preserveAspectRatio="xMidYMid meet" viewBox="88.7625 671.3999700108001 1278 344.99998459000005" zoomAndPan="magnify" xmlns:xlink="http://www.w3.org/1999/xlink" xmlns="http://www.w3.org/2000/svg" style="max-height: 500px" width="1278" height="344.99998459000005"><defs><g/><clipPath id="94616f8d2a"><path clip-rule="nonzero" d="M 103.074219 683.375 L 415.824219 683.375 L 415.824219 996.125 L 103.074219 996.125 Z M 103.074219 683.375"/></clipPath></defs><g clip-path="url(#94616f8d2a)"><path fill-rule="nonzero" fill-opacity="1" d="M 319.742188 803.476562 L 296.039062 803.476562 L 296.039062 779.773438 C 296.039062 747.113281 279.621094 718.230469 254.601562 700.757812 C 238.976562 689.785156 220.011719 683.375 199.558594 683.375 C 146.53125 683.375 103.074219 726.746094 103.074219 779.859375 L 103.074219 996.441406 L 319.65625 996.441406 C 324.222656 996.441406 328.609375 996.089844 333 995.476562 C 379.792969 988.894531 416.140625 948.507812 416.140625 899.960938 C 416.140625 851.410156 372.769531 803.476562 319.65625 803.476562 Z M 158.03125 760.371094 C 158.03125 748.078125 168.128906 737.984375 180.417969 737.984375 L 215.796875 737.984375 C 228.089844 737.984375 238.183594 748.078125 238.183594 760.371094 C 238.183594 772.660156 228.089844 782.757812 215.796875 782.757812 L 180.417969 782.757812 C 169.972656 782.757812 161.105469 775.46875 158.644531 765.726562 C 158.207031 763.96875 157.941406 762.214844 157.941406 760.371094 Z M 334.40625 904.347656 C 334.40625 916.640625 324.308594 926.734375 312.019531 926.734375 L 189.285156 926.734375 C 176.992188 926.734375 166.898438 916.640625 166.898438 904.347656 C 166.898438 892.058594 176.992188 881.960938 189.285156 881.960938 L 312.019531 881.960938 C 324.308594 881.960938 334.40625 892.058594 334.40625 904.347656 Z M 334.40625 904.347656" fill="#465fff"/></g><g fill-opacity="1" fill="#101828"><g transform="translate(451.022377, 926.126396)"><g><path d="M 97.5 -175 C 114.5 -175 127.332031 -171.25 136 -163.75 C 144.664062 -156.25 149 -145.332031 149 -131 C 149 -123.164062 147.125 -116.164062 143.375 -110 C 139.625 -103.832031 134.082031 -99 126.75 -95.5 C 132.25 -93.664062 137.375 -90.875 142.125 -87.125 C 146.875 -83.375 150.75 -78.582031 153.75 -72.75 C 156.75 -66.914062 158.25 -59.832031 158.25 -51.5 C 158.25 -41.332031 156.5 -32.914062 153 -26.25 C 149.5 -19.582031 144.914062 -14.332031 139.25 -10.5 C 133.582031 -6.664062 127.332031 -3.957031 120.5 -2.375 C 113.664062 -0.789062 106.832031 0 100 0 L 24.5 0 L 24.5 -175 Z M 93 -149 L 51.5 -149 L 51.5 -102.5 L 96 -102.5 C 102.832031 -102.664062 108.875 -104.75 114.125 -108.75 C 119.375 -112.75 122 -118.414062 122 -125.75 C 122 -134.082031 119.207031 -140.039062 113.625 -143.625 C 108.039062 -147.207031 101.164062 -149 93 -149 Z M 97.25 -76.5 L 51.5 -76.5 L 51.5 -26 L 98.5 -26 C 108 -26 115.75 -28.125 121.75 -32.375 C 127.75 -36.625 130.75 -43.164062 130.75 -52 C 130.75 -58.332031 129 -63.25 125.5 -66.75 C 122 -70.25 117.707031 -72.75 112.625 -74.25 C 107.539062 -75.75 102.414062 -76.5 97.25 -76.5 Z M 97.25 -76.5"/></g></g></g><g fill-opacity="1" fill="#101828"><g transform="translate(605.770366, 926.126396)"><g><path d="M 35.25 -159.75 C 29.414062 -159.75 25.082031 -161.25 22.25 -164.25 C 19.414062 -167.25 18 -171.164062 18 -176 C 18 -180.164062 19.414062 -183.914062 22.25 -187.25 C 25.082031 -190.582031 29.414062 -192.25 35.25 -192.25 C 41.082031 -192.25 45.414062 -190.75 48.25 -187.75 C 51.082031 -184.75 52.5 -180.832031 52.5 -176 C 52.5 -171.832031 51.082031 -168.082031 48.25 -164.75 C 45.414062 -161.414062 41.082031 -159.75 35.25 -159.75 Z M 48.5 0 L 22.75 0 L 22.75 -131.25 L 48.5 -131.25 Z M 48.5 0"/></g></g></g><g fill-opacity="1" fill="#101828"><g transform="translate(659.769595, 926.126396)"><g><path d="M 18 0 L 18 -185 L 43.75 -185 L 43.75 0 Z M 18 0"/></g></g></g><g fill-opacity="1" fill="#101828"><g transform="translate(706.768873, 926.126396)"><g><path d="M 18 0 L 18 -185 L 43.75 -185 L 43.75 0 Z M 18 0"/></g></g></g><g fill-opacity="1" fill="#101828"><g transform="translate(753.768129, 926.126396)"><g/></g></g><g fill-opacity="1" fill="#101828"><g transform="translate(808.267315, 926.126396)"><g><path d="M 97.5 -175 C 114.5 -175 127.332031 -171.25 136 -163.75 C 144.664062 -156.25 149 -145.332031 149 -131 C 149 -123.164062 147.125 -116.164062 143.375 -110 C 139.625 -103.832031 134.082031 -99 126.75 -95.5 C 132.25 -93.664062 137.375 -90.875 142.125 -87.125 C 146.875 -83.375 150.75 -78.582031 153.75 -72.75 C 156.75 -66.914062 158.25 -59.832031 158.25 -51.5 C 158.25 -41.332031 156.5 -32.914062 153 -26.25 C 149.5 -19.582031 144.914062 -14.332031 139.25 -10.5 C 133.582031 -6.664062 127.332031 -3.957031 120.5 -2.375 C 113.664062 -0.789062 106.832031 0 100 0 L 24.5 0 L 24.5 -175 Z M 93 -149 L 51.5 -149 L 51.5 -102.5 L 96 -102.5 C 102.832031 -102.664062 108.875 -104.75 114.125 -108.75 C 119.375 -112.75 122 -118.414062 122 -125.75 C 122 -134.082031 119.207031 -140.039062 113.625 -143.625 C 108.039062 -147.207031 101.164062 -149 93 -149 Z M 97.25 -76.5 L 51.5 -76.5 L 51.5 -26 L 98.5 -26 C 108 -26 115.75 -28.125 121.75 -32.375 C 127.75 -36.625 130.75 -43.164062 130.75 -52 C 130.75 -58.332031 129 -63.25 125.5 -66.75 C 122 -70.25 117.707031 -72.75 112.625 -74.25 C 107.539062 -75.75 102.414062 -76.5 97.25 -76.5 Z M 97.25 -76.5"/></g></g></g><g fill-opacity="1" fill="#101828"><g transform="translate(963.015297, 926.126396)"><g><path d="M 140.25 -131.25 L 140.25 0 L 114.25 0 L 114.25 -20.25 C 110.25 -14.75 104.332031 -9.582031 96.5 -4.75 C 88.664062 0.0820312 79.582031 2.5 69.25 2.5 C 58.25 2.5 48.207031 -0.414062 39.125 -6.25 C 30.039062 -12.082031 22.832031 -20.164062 17.5 -30.5 C 12.164062 -40.832031 9.5 -52.664062 9.5 -66 C 9.5 -79.332031 12.25 -91.125 17.75 -101.375 C 23.25 -111.625 30.832031 -119.625 40.5 -125.375 C 50.164062 -131.125 61.164062 -134 73.5 -134 C 82.664062 -134 90.707031 -132 97.625 -128 C 104.539062 -124 110.082031 -119.332031 114.25 -114 L 114.25 -131.25 Z M 75.25 -21.25 C 83.25 -21.25 90.25 -23.207031 96.25 -27.125 C 102.25 -31.039062 106.914062 -36.375 110.25 -43.125 C 113.582031 -49.875 115.25 -57.5 115.25 -66 C 115.25 -74.332031 113.582031 -81.832031 110.25 -88.5 C 106.914062 -95.164062 102.25 -100.457031 96.25 -104.375 C 90.25 -108.289062 83.25 -110.25 75.25 -110.25 C 67.582031 -110.25 60.75 -108.332031 54.75 -104.5 C 48.75 -100.664062 44.082031 -95.414062 40.75 -88.75 C 37.414062 -82.082031 35.75 -74.5 35.75 -66 C 35.75 -57.5 37.414062 -49.875 40.75 -43.125 C 44.082031 -36.375 48.75 -31.039062 54.75 -27.125 C 60.75 -23.207031 67.582031 -21.25 75.25 -21.25 Z M 75.25 -21.25"/></g></g></g><g fill-opacity="1" fill="#101828"><g transform="translate(1105.763437, 926.126396)"><g><path d="M 93.75 -96.75 C 89.082031 -101.414062 83.789062 -105.25 77.875 -108.25 C 71.957031 -111.25 66.5 -112.75 61.5 -112.75 C 58 -112.75 54.539062 -112.332031 51.125 -111.5 C 47.707031 -110.664062 44.832031 -109.125 42.5 -106.875 C 40.164062 -104.625 39 -101.332031 39 -97 C 39.164062 -91 41.875 -86.75 47.125 -84.25 C 52.375 -81.75 58.914062 -79.5 66.75 -77.5 C 73.582031 -75.664062 80.25 -73.375 86.75 -70.625 C 93.25 -67.875 98.625 -63.875 102.875 -58.625 C 107.125 -53.375 109.25 -46 109.25 -36.5 C 109.25 -28.332031 106.957031 -21.332031 102.375 -15.5 C 97.789062 -9.664062 91.875 -5.207031 84.625 -2.125 C 77.375 0.957031 69.75 2.5 61.75 2.5 C 52.25 2.5 42.875 0.789062 33.625 -2.625 C 24.375 -6.039062 16.5 -11.914062 10 -20.25 L 27.5 -35.25 C 32 -30.082031 37.125 -26.039062 42.875 -23.125 C 48.625 -20.207031 55.664062 -18.75 64 -18.75 C 67.164062 -18.75 70.332031 -19.289062 73.5 -20.375 C 76.664062 -21.457031 79.375 -23.207031 81.625 -25.625 C 83.875 -28.039062 85 -31.332031 85 -35.5 C 85 -39.5 83.789062 -42.625 81.375 -44.875 C 78.957031 -47.125 75.75 -48.957031 71.75 -50.375 C 67.75 -51.789062 63.332031 -53.082031 58.5 -54.25 C 51.332031 -56.25 44.289062 -58.707031 37.375 -61.625 C 30.457031 -64.539062 24.707031 -68.707031 20.125 -74.125 C 15.539062 -79.539062 13.25 -86.914062 13.25 -96.25 C 13.25 -104.082031 15.457031 -110.789062 19.875 -116.375 C 24.289062 -121.957031 30.082031 -126.289062 37.25 -129.375 C 44.414062 -132.457031 52.082031 -134 60.25 -134 C 68.082031 -134 76.582031 -132.332031 85.75 -129 C 94.914062 -125.664062 102.5 -120.332031 108.5 -113 Z M 93.75 -96.75"/></g></g></g><g fill-opacity="1" fill="#101828"><g transform="translate(1210.012055, 926.126396)"><g><path d="M 130.75 -17.25 L 130.5 -17.25 C 125.164062 -12.082031 117.832031 -7.5 108.5 -3.5 C 99.164062 0.5 89.414062 2.5 79.25 2.5 C 65.582031 2.5 53.539062 -0.375 43.125 -6.125 C 32.707031 -11.875 24.582031 -19.789062 18.75 -29.875 C 12.914062 -39.957031 10 -51.414062 10 -64.25 C 10 -78.914062 13.082031 -91.457031 19.25 -101.875 C 25.414062 -112.289062 33.582031 -120.289062 43.75 -125.875 C 53.914062 -131.457031 65 -134.25 77 -134.25 C 88 -134.25 98 -131.539062 107 -126.125 C 116 -120.707031 123.164062 -113.25 128.5 -103.75 C 133.832031 -94.25 136.5 -83.164062 136.5 -70.5 L 136.25 -59.5 L 35.75 -59.5 C 37.25 -47.664062 42.125 -38.289062 50.375 -31.375 C 58.625 -24.457031 69.082031 -21 81.75 -21 C 90.914062 -21 98.332031 -22.707031 104 -26.125 C 109.664062 -29.539062 114.332031 -32.832031 118 -36 Z M 77 -110.5 C 67.164062 -110.5 58.582031 -108.207031 51.25 -103.625 C 43.914062 -99.039062 39.082031 -91.164062 36.75 -80 L 110.25 -80 L 110.25 -81.75 C 109.75 -87.414062 107.875 -92.414062 104.625 -96.75 C 101.375 -101.082031 97.332031 -104.457031 92.5 -106.875 C 87.664062 -109.289062 82.5 -110.5 77 -110.5 Z M 77 -110.5"/></g></g></g></svg>