<svg version="1.0" preserveAspectRatio="xMidYMid meet" viewBox="19.76247 20.40002908879866 1461 1454.99993501" zoomAndPan="magnify" xmlns:xlink="http://www.w3.org/1999/xlink" xmlns="http://www.w3.org/2000/svg" style="max-height: 500px" width="1461" height="1454.99993501"><defs><clipPath id="2d20313763"><path clip-rule="nonzero" d="M 41.484375 41.484375 L 1458.234375 41.484375 L 1458.234375 1458.234375 L 41.484375 1458.234375 Z M 41.484375 41.484375"/></clipPath></defs><g clip-path="url(#2d20313763)"><path fill-rule="nonzero" fill-opacity="1" d="M 1022.191406 585.085938 L 914.902344 585.085938 L 914.902344 477.796875 C 914.902344 329.976562 840.59375 199.242188 727.34375 120.164062 C 656.613281 70.492188 570.78125 41.484375 478.195312 41.484375 C 238.183594 41.484375 41.484375 237.785156 41.484375 478.195312 L 41.484375 1458.503906 L 1021.796875 1458.503906 C 1042.457031 1458.503906 1062.328125 1456.914062 1082.195312 1454.132812 C 1293.992188 1424.332031 1458.503906 1241.539062 1458.503906 1021.796875 C 1458.503906 802.050781 1262.203125 585.085938 1021.796875 585.085938 Z M 290.238281 389.976562 C 290.238281 334.347656 335.9375 288.648438 391.566406 288.648438 L 551.707031 288.648438 C 607.339844 288.648438 653.035156 334.347656 653.035156 389.976562 C 653.035156 445.609375 607.339844 491.308594 551.707031 491.308594 L 391.566406 491.308594 C 344.28125 491.308594 304.144531 458.324219 293.019531 414.21875 C 291.035156 406.269531 289.839844 398.324219 289.839844 389.976562 Z M 1088.554688 1041.664062 C 1088.554688 1097.296875 1042.855469 1142.992188 987.222656 1142.992188 L 431.703125 1142.992188 C 376.070312 1142.992188 330.371094 1097.296875 330.371094 1041.664062 C 330.371094 986.03125 376.070312 940.335938 431.703125 940.335938 L 987.222656 940.335938 C 1042.855469 940.335938 1088.554688 986.03125 1088.554688 1041.664062 Z M 1088.554688 1041.664062" fill="#465fff"/></g></svg>